<svg width="127" height="22" viewBox="0 0 127 22" fill="none" xmlns="http://www.w3.org/2000/svg">
<path d="M12.6971 21.9998V16.8821H6.41668C3.57175 16.8821 1.26562 14.576 1.26562 11.731V10.5026C1.26562 7.83111 3.04263 5.56594 5.47591 4.82777L3.86163 0.932147L6.11279 0L9.017 7.00996H6.4156C4.91663 7.00996 3.70106 8.22553 3.70106 9.72451V11.73C3.70106 13.2289 4.91663 14.4445 6.4156 14.4445H15.1325V17.1882C16.8998 15.8907 19.3062 14.1245 19.7879 13.771C20.6834 13.1147 21.2179 12.0608 21.2179 10.953V9.72451C21.2179 8.22553 20.0023 7.00996 18.5033 7.00996H10.7347L9.66573 4.57345H18.5023C21.3472 4.57345 23.6533 6.87957 23.6533 9.72451V10.9519C23.6533 12.8335 22.747 14.6212 21.2287 15.7344C20.4485 16.3067 14.6347 20.5741 14.6347 20.5741L12.696 21.9976L12.6971 21.9998Z" fill="#75F66D"/>
<path d="M18.9266 0.000444389L16.4609 5.95312L18.712 6.88554L21.1777 0.932858L18.9266 0.000444389Z" fill="#75F66D"/>
<path d="M2.93438 9.41992H0V12.1269H2.93438V9.41992Z" fill="#75F66D"/>
<path d="M25.0281 9.41992H22.0938V12.1269H25.0281V9.41992Z" fill="#75F66D"/>
<path d="M53.1576 4.2031L53.1468 1.43359H46.9688L46.9752 4.2031H53.1576Z" fill="white"/>
<path d="M48.4645 14.9771H48.1434L41.7757 1.45508H39.3909L31.5469 17.9632H34.9166L40.5828 5.93046L46.222 17.9632H48.4311C48.4527 16.9675 48.4753 15.9729 48.4645 14.9771Z" fill="white"/>
<path d="M43.2328 15.5368H34.7109V12.7285H42.0636L43.2328 15.5368Z" fill="white"/>
<path d="M53.1576 17.9638L53.1468 15.1943H46.9688L46.9752 17.9638H53.1576Z" fill="white"/>
<path d="M51.4775 3.78809H48.666L48.6746 14.9782H48.4709C48.4817 15.9739 48.4591 16.9685 48.4375 17.9643H51.498L51.4775 3.78916V3.78809Z" fill="white"/>
<path d="M55.0217 20.8223H64.7344V18.0538H55.0217V20.8223Z" fill="#75F86F"/>
<path d="M73.301 1.19238V7.00834C72.3592 6.39301 71.2352 6.03308 70.0282 6.03308C66.7221 6.03308 64.0312 8.72284 64.0312 12.0301C64.0312 15.3373 66.721 18.0271 70.0282 18.0271C71.2352 18.0271 72.3592 17.6671 73.301 17.0518V18.0271H76.0252V1.19238H73.301ZM70.0282 15.3028C68.2243 15.3028 66.7566 13.8351 66.7566 12.0301C66.7566 10.2251 68.2243 8.7584 70.0282 8.7584C71.8322 8.7584 73.301 10.2261 73.301 12.0301C73.301 13.834 71.8333 15.3028 70.0282 15.3028Z" fill="white"/>
<path d="M88.5786 12.6911L88.6001 11.7287C88.6141 10.8979 88.4913 10.1328 88.2283 9.43339C87.9654 8.73401 87.5904 8.12515 87.1022 7.60789C86.614 7.09063 86.0386 6.68975 85.3748 6.40525C84.712 6.12076 83.9868 5.97852 83.2001 5.97852C82.3402 5.97852 81.5492 6.12831 80.8283 6.42681C80.1073 6.72531 79.4834 7.14451 78.9586 7.6844C78.4338 8.22321 78.0254 8.86871 77.7344 9.61874C77.4424 10.3698 77.2969 11.1964 77.2969 12.0994C77.2969 13.2363 77.5555 14.2493 78.0728 15.1383C78.59 16.0274 79.3185 16.7268 80.2593 17.2365C81.199 17.7462 82.296 18.0016 83.5493 18.0016C84.0881 18.0016 84.6269 17.9359 85.1668 17.8044C85.7056 17.6729 86.2304 17.4768 86.7401 17.2139C87.2498 16.9509 87.7089 16.6384 88.1173 16.2742L86.6528 14.1976C86.1571 14.5909 85.6981 14.8679 85.2756 15.0284C84.8521 15.189 84.3866 15.2687 83.8769 15.2687C83.1333 15.2687 82.4889 15.1308 81.9425 14.8528C81.3962 14.5758 80.977 14.1793 80.686 13.6609C80.519 13.3656 80.4058 13.0391 80.3347 12.6878H88.5775L88.5786 12.6911ZM81.5934 9.00772C82.0384 8.75233 82.588 8.62517 83.2443 8.62517C83.6667 8.62517 84.0536 8.71677 84.4027 8.89889C84.7519 9.081 85.0396 9.32562 85.2659 9.63167C85.4502 9.88168 85.5655 10.1683 85.6194 10.4862H80.4382C80.4813 10.3504 80.5308 10.2222 80.5879 10.1015C80.8142 9.62844 81.1483 9.2642 81.5934 9.0088V9.00772Z" fill="white"/>
<path d="M93.2351 18.054L88.1562 5.95117H91.7027L94.5832 13.9784L97.5822 5.95117H101.06L95.7287 18.054H93.2351Z" fill="white"/>
<path d="M105.435 18.0039C104.371 18.0039 103.42 17.8293 102.582 17.4791C101.744 17.1299 101.064 16.6342 100.539 15.9941V15.9919L102.483 14.3313C102.935 14.8119 103.435 15.1589 103.981 15.3691C104.527 15.5803 105.086 15.6859 105.653 15.6859C105.857 15.6859 106.047 15.6611 106.221 15.6094C106.396 15.5587 106.549 15.4854 106.68 15.3906C106.812 15.2958 106.91 15.1826 106.976 15.0522C107.041 14.9208 107.074 14.7677 107.074 14.5932C107.074 14.2731 106.942 14.0253 106.68 13.8496C106.564 13.7623 106.349 13.6643 106.036 13.5543C105.722 13.4455 105.326 13.3248 104.844 13.1933C104.101 13.0037 103.475 12.7817 102.964 12.5263C102.453 12.2709 102.038 11.9767 101.718 11.6405C101.455 11.3635 101.256 11.0435 101.117 10.6781C100.978 10.3139 100.909 9.91303 100.909 9.47552C100.909 8.77614 101.112 8.16405 101.521 7.63924C101.929 7.11444 102.472 6.70709 103.149 6.41506C103.827 6.1241 104.566 5.97754 105.368 5.97754C105.966 5.97754 106.545 6.05082 107.106 6.1963C107.666 6.34178 108.191 6.54976 108.681 6.81917C109.169 7.08857 109.595 7.40647 109.96 7.77071L108.298 9.62854C108.036 9.3656 107.737 9.13714 107.401 8.93993C107.066 8.74273 106.731 8.58324 106.396 8.45931C106.061 8.33539 105.755 8.27396 105.478 8.27396C105.23 8.27396 105.008 8.29552 104.811 8.3397C104.615 8.38388 104.45 8.45285 104.319 8.54768C104.189 8.64251 104.09 8.75566 104.024 8.88605C103.937 9.05955 103.908 9.25891 103.936 9.48306C103.939 9.51108 103.945 9.5391 103.954 9.56496C104.025 9.78372 104.167 9.97877 104.38 10.1501C104.383 10.1523 104.386 10.1544 104.389 10.1566C104.535 10.2439 104.771 10.3441 105.095 10.4594C105.423 10.5758 105.85 10.7072 106.374 10.8527C107.074 11.0424 107.664 11.2536 108.145 11.4864C108.626 11.7191 109.011 11.9885 109.303 12.2957C109.566 12.5575 109.752 12.8603 109.861 13.203C109.969 13.5457 110.024 13.9132 110.024 14.3076C110.024 15.0221 109.824 15.6589 109.423 16.2204C109.022 16.7818 108.476 17.2183 107.783 17.5319C107.091 17.8454 106.308 18.0017 105.433 18.0017L105.435 18.0039Z" fill="white"/>
<path d="M120.409 17.7182V4.49036L121.983 4.58411L116.298 11.5154L115.921 10.9518H126.541V13.9358H114.183L112.75 11.163L120.973 1.17773H123.792V17.7182H120.409Z" fill="#75F86F"/>
</svg>
